# xmcd
#
# Track frame offsets: 
#        183
#        15241
#        48078
#        69536
#        83852
#        107895
#        124047
#        154707
#        176870
#
# Disc length: 2515 seconds
#
# Revision: 14
# Processed by: cddbd v1.5.2PL0 Copyright (c) Steve Scherf et al.
# Submitted via: ExactAudioCopy v0.99pb5
#
DISCID=6a09d109
DTITLE=Gidon Kremer, Academy of St Martin in the Field - J.S Bach - Vi
DTITLE=olin Concertos
DYEAR=1983
DGENRE=Classique
TTITLE0=Concerto in D minor for two violins, BWV.1043 - I. Vivace
TTITLE1=Concerto in D minor for two violins, BWV.1043 - II. Largo ma n
TTITLE1=on tanto
TTITLE2=Concerto in D minor for two violins, BWV.1043 - III. Allegro
TTITLE3=Violin Concerto N°1 in A minor, BWV.1041 - I. Allegro moderato
TTITLE4=Violin Concerto N°1 in A minor, BWV.1041 - II. Andante
TTITLE5=Violin Concerto N°1 in A minor, BWV.1041 - III. Allegro assai
TTITLE6=Violin Concerto N°2 in E major, BWV.1042 - I. Allegro
TTITLE7=Violin Concerto N°2 in E major, BWV.1042 - II. Adagio
TTITLE8=Violin Concerto N°2 in E major, BWV.1042 - III. Allegro assai
EXTD=YEAR: 1983
EXTT0=
EXTT1=
EXTT2=
EXTT3=
EXTT4=
EXTT5=
EXTT6=
EXTT7=
EXTT8=
PLAYORDER=
